<svg width="132" height="31" viewBox="0 0 132 31" fill="none" xmlns="http://www.w3.org/2000/svg">
<path d="M46.9794 8V2.07H44.7094V0.8H50.6094V2.07H48.3394V8H46.9794ZM50.9148 8V2.6H52.1148V3.92L51.9848 3.75C52.0548 3.56333 52.1482 3.39333 52.2648 3.24C52.3815 3.08667 52.5248 2.96 52.6948 2.86C52.8248 2.78 52.9665 2.71833 53.1198 2.675C53.2732 2.62833 53.4315 2.6 53.5948 2.59C53.7582 2.57667 53.9215 2.58 54.0848 2.6V3.87C53.9348 3.82333 53.7598 3.80833 53.5598 3.825C53.3632 3.83833 53.1848 3.88333 53.0248 3.96C52.8648 4.03333 52.7298 4.13167 52.6198 4.255C52.5098 4.375 52.4265 4.51833 52.3698 4.685C52.3132 4.84833 52.2848 5.03333 52.2848 5.24V8H50.9148ZM56.4285 8.15C56.0418 8.15 55.7135 8.07667 55.4435 7.93C55.1768 7.78 54.9735 7.58167 54.8335 7.335C54.6968 7.085 54.6285 6.81 54.6285 6.51C54.6285 6.26 54.6668 6.03167 54.7435 5.825C54.8202 5.61833 54.9435 5.43667 55.1135 5.28C55.2868 5.12 55.5185 4.98667 55.8085 4.88C56.0085 4.80667 56.2468 4.74167 56.5235 4.685C56.8002 4.62833 57.1135 4.575 57.4635 4.525C57.8135 4.47167 58.1985 4.41333 58.6185 4.35L58.1285 4.62C58.1285 4.3 58.0518 4.065 57.8985 3.915C57.7452 3.765 57.4885 3.69 57.1285 3.69C56.9285 3.69 56.7202 3.73833 56.5035 3.835C56.2868 3.93167 56.1352 4.10333 56.0485 4.35L54.8185 3.96C54.9552 3.51333 55.2118 3.15 55.5885 2.87C55.9652 2.59 56.4785 2.45 57.1285 2.45C57.6052 2.45 58.0285 2.52333 58.3985 2.67C58.7685 2.81667 59.0485 3.07 59.2385 3.43C59.3452 3.63 59.4085 3.83 59.4285 4.03C59.4485 4.23 59.4585 4.45333 59.4585 4.7V8H58.2685V6.89L58.4385 7.12C58.1752 7.48333 57.8902 7.74667 57.5835 7.91C57.2802 8.07 56.8952 8.15 56.4285 8.15ZM56.7185 7.08C56.9685 7.08 57.1785 7.03667 57.3485 6.95C57.5218 6.86 57.6585 6.75833 57.7585 6.645C57.8618 6.53167 57.9318 6.43667 57.9685 6.36C58.0385 6.21333 58.0785 6.04333 58.0885 5.85C58.1018 5.65333 58.1085 5.49 58.1085 5.36L58.5085 5.46C58.1052 5.52667 57.7785 5.58333 57.5285 5.63C57.2785 5.67333 57.0768 5.71333 56.9235 5.75C56.7702 5.78667 56.6352 5.82667 56.5185 5.87C56.3852 5.92333 56.2768 5.98167 56.1935 6.045C56.1135 6.105 56.0535 6.17167 56.0135 6.245C55.9768 6.31833 55.9585 6.4 55.9585 6.49C55.9585 6.61333 55.9885 6.72 56.0485 6.81C56.1118 6.89667 56.2002 6.96333 56.3135 7.01C56.4268 7.05667 56.5618 7.08 56.7185 7.08ZM63.1386 8.15C62.5786 8.15 62.0986 8.025 61.6986 7.775C61.2986 7.525 60.9919 7.185 60.7786 6.755C60.5653 6.325 60.4586 5.84 60.4586 5.3C60.4586 4.75333 60.5686 4.265 60.7886 3.835C61.0119 3.405 61.3253 3.06667 61.7286 2.82C62.1319 2.57333 62.6086 2.45 63.1586 2.45C63.7953 2.45 64.3286 2.61167 64.7586 2.935C65.1919 3.255 65.4686 3.69333 65.5886 4.25L64.2286 4.61C64.1486 4.33 64.0086 4.11167 63.8086 3.955C63.6119 3.79833 63.3886 3.72 63.1386 3.72C62.8519 3.72 62.6169 3.79 62.4336 3.93C62.2503 4.06667 62.1153 4.255 62.0286 4.495C61.9419 4.73167 61.8986 5 61.8986 5.3C61.8986 5.77 62.0019 6.15167 62.2086 6.445C62.4186 6.735 62.7286 6.88 63.1386 6.88C63.4453 6.88 63.6786 6.81 63.8386 6.67C63.9986 6.53 64.1186 6.33 64.1986 6.07L65.5886 6.36C65.4353 6.93333 65.1453 7.375 64.7186 7.685C64.2919 7.995 63.7653 8.15 63.1386 8.15ZM66.5787 8L66.5887 0.8H67.9687V5.2L69.7987 2.6H71.4787L69.5287 5.3L71.6087 8H69.8387L67.9687 5.4V8H66.5787ZM72.2063 1.85V0.65H73.5663V1.85H72.2063ZM72.2063 8V2.6H73.5663V8H72.2063ZM78.7452 8V5.45C78.7452 5.32667 78.7386 5.17 78.7252 4.98C78.7119 4.78667 78.6702 4.59333 78.6002 4.4C78.5302 4.20667 78.4152 4.045 78.2552 3.915C78.0986 3.785 77.8752 3.72 77.5852 3.72C77.4686 3.72 77.3436 3.73833 77.2102 3.775C77.0769 3.81167 76.9519 3.88333 76.8352 3.99C76.7186 4.09333 76.6219 4.24667 76.5452 4.45C76.4719 4.65333 76.4352 4.92333 76.4352 5.26L75.6552 4.89C75.6552 4.46333 75.7419 4.06333 75.9152 3.69C76.0886 3.31667 76.3486 3.015 76.6952 2.785C77.0452 2.555 77.4852 2.44 78.0152 2.44C78.4386 2.44 78.7836 2.51167 79.0502 2.655C79.3169 2.79833 79.5236 2.98 79.6702 3.2C79.8202 3.42 79.9269 3.65 79.9902 3.89C80.0536 4.12667 80.0919 4.34333 80.1052 4.54C80.1186 4.73667 80.1252 4.88 80.1252 4.97V8H78.7452ZM75.0552 8V2.6H76.2652V4.39H76.4352V8H75.0552ZM83.7327 10.55C83.426 10.55 83.1343 10.5 82.8577 10.4C82.581 10.3033 82.3327 10.1667 82.1127 9.99C81.896 9.81667 81.7193 9.61333 81.5827 9.38L82.8427 8.77C82.9293 8.93 83.0527 9.05167 83.2127 9.135C83.376 9.21833 83.5527 9.26 83.7427 9.26C83.946 9.26 84.1377 9.225 84.3177 9.155C84.4977 9.08833 84.641 8.98667 84.7477 8.85C84.8577 8.71667 84.9093 8.55 84.9027 8.35V6.78H85.0727V2.6H86.2627V8.37C86.2627 8.50333 86.256 8.62833 86.2427 8.745C86.2327 8.865 86.2127 8.98333 86.1827 9.1C86.096 9.43 85.9343 9.70167 85.6977 9.915C85.4643 10.1283 85.1777 10.2867 84.8377 10.39C84.4977 10.4967 84.1293 10.55 83.7327 10.55ZM83.6127 8.15C83.116 8.15 82.681 8.025 82.3077 7.775C81.9343 7.525 81.6427 7.185 81.4327 6.755C81.226 6.325 81.1227 5.84 81.1227 5.3C81.1227 4.75 81.2277 4.26167 81.4377 3.835C81.651 3.405 81.9493 3.06667 82.3327 2.82C82.716 2.57333 83.166 2.45 83.6827 2.45C84.196 2.45 84.6277 2.575 84.9777 2.825C85.3277 3.075 85.5927 3.415 85.7727 3.845C85.9527 4.275 86.0427 4.76 86.0427 5.3C86.0427 5.84 85.951 6.325 85.7677 6.755C85.5877 7.185 85.3177 7.525 84.9577 7.775C84.5977 8.025 84.1493 8.15 83.6127 8.15ZM83.8327 6.94C84.136 6.94 84.3777 6.87167 84.5577 6.735C84.741 6.59833 84.8727 6.40667 84.9527 6.16C85.0327 5.91333 85.0727 5.62667 85.0727 5.3C85.0727 4.97333 85.0327 4.68667 84.9527 4.44C84.8727 4.19333 84.7443 4.00167 84.5677 3.865C84.3943 3.72833 84.166 3.66 83.8827 3.66C83.5793 3.66 83.3293 3.735 83.1327 3.885C82.9393 4.03167 82.796 4.23 82.7027 4.48C82.6093 4.72667 82.5627 5 82.5627 5.3C82.5627 5.60333 82.6077 5.88 82.6977 6.13C82.7877 6.37667 82.926 6.57333 83.1127 6.72C83.2993 6.86667 83.5393 6.94 83.8327 6.94Z" fill="#949494"/>
<path d="M0.089375 30L5.36938 12.72H10.2414L15.5214 30H12.1614L7.45738 14.76H8.08138L3.44938 30H0.089375ZM3.25738 26.4V23.352H12.3774V26.4H3.25738ZM33.2722 30V22.344C33.2722 21.488 33.0682 20.824 32.6602 20.352C32.2602 19.872 31.7042 19.632 30.9922 19.632C30.5362 19.632 30.1402 19.74 29.8042 19.956C29.4682 20.164 29.2042 20.46 29.0122 20.844C28.8282 21.22 28.7362 21.656 28.7362 22.152L27.3682 21.24C27.3682 20.352 27.5762 19.568 27.9922 18.888C28.4162 18.208 28.9802 17.68 29.6842 17.304C30.3962 16.92 31.1842 16.728 32.0482 16.728C33.5282 16.728 34.6442 17.168 35.3962 18.048C36.1562 18.92 36.5362 20.064 36.5362 21.48V30H33.2722ZM17.6482 30V17.04H20.5282V21.336H20.9362V30H17.6482ZM25.4722 30V22.344C25.4722 21.488 25.2682 20.824 24.8602 20.352C24.4602 19.872 23.9042 19.632 23.1922 19.632C22.5122 19.632 21.9642 19.868 21.5482 20.34C21.1402 20.804 20.9362 21.408 20.9362 22.152L19.5682 21.192C19.5682 20.344 19.7802 19.584 20.2042 18.912C20.6282 18.24 21.1962 17.708 21.9082 17.316C22.6282 16.924 23.4322 16.728 24.3202 16.728C25.3362 16.728 26.1682 16.944 26.8162 17.376C27.4722 17.808 27.9562 18.384 28.2682 19.104C28.5802 19.824 28.7362 20.616 28.7362 21.48V30H25.4722ZM46.0166 30.36C44.7286 30.36 43.6526 30.06 42.7886 29.46C41.9246 28.86 41.2726 28.044 40.8326 27.012C40.4006 25.98 40.1846 24.816 40.1846 23.52C40.1846 22.224 40.4006 21.06 40.8326 20.028C41.2646 18.996 41.9006 18.18 42.7406 17.58C43.5806 16.98 44.6166 16.68 45.8486 16.68C47.0886 16.68 48.1686 16.976 49.0886 17.568C50.0086 18.16 50.7206 18.972 51.2246 20.004C51.7366 21.028 51.9926 22.2 51.9926 23.52C51.9926 24.816 51.7406 25.98 51.2366 27.012C50.7406 28.044 50.0446 28.86 49.1486 29.46C48.2526 30.06 47.2086 30.36 46.0166 30.36ZM39.6326 30V12.72H42.9206V21.12H42.5126V30H39.6326ZM45.4886 27.456C46.1926 27.456 46.7686 27.28 47.2166 26.928C47.6646 26.576 47.9966 26.104 48.2126 25.512C48.4286 24.912 48.5366 24.248 48.5366 23.52C48.5366 22.8 48.4246 22.144 48.2006 21.552C47.9766 20.952 47.6286 20.476 47.1566 20.124C46.6926 19.764 46.0966 19.584 45.3686 19.584C44.6886 19.584 44.1366 19.748 43.7126 20.076C43.2966 20.404 42.9926 20.864 42.8006 21.456C42.6086 22.048 42.5126 22.736 42.5126 23.52C42.5126 24.304 42.6086 24.992 42.8006 25.584C42.9926 26.176 43.3046 26.636 43.7366 26.964C44.1766 27.292 44.7606 27.456 45.4886 27.456ZM59.4571 30.384C58.4411 30.384 57.6131 30.212 56.9731 29.868C56.3331 29.524 55.8331 29.088 55.4731 28.56C55.1211 28.032 54.8691 27.484 54.7171 26.916C54.5651 26.34 54.4731 25.816 54.4411 25.344C54.4091 24.872 54.3931 24.528 54.3931 24.312V17.04H57.7051V23.16C57.7051 23.456 57.7211 23.836 57.7531 24.3C57.7851 24.756 57.8851 25.216 58.0531 25.68C58.2211 26.144 58.4931 26.532 58.8691 26.844C59.2531 27.156 59.7931 27.312 60.4891 27.312C60.7691 27.312 61.0691 27.268 61.3891 27.18C61.7091 27.092 62.0091 26.924 62.2891 26.676C62.5691 26.42 62.7971 26.048 62.9731 25.56C63.1571 25.064 63.2491 24.416 63.2491 23.616L65.1211 24.504C65.1211 25.528 64.9131 26.488 64.4971 27.384C64.0811 28.28 63.4531 29.004 62.6131 29.556C61.7811 30.108 60.7291 30.384 59.4571 30.384ZM63.6571 30V25.704H63.2491V17.04H66.5371V30H63.6571ZM70.1309 30V12.36H73.3949V30H70.1309ZM80.5925 30.36C79.6645 30.36 78.8765 30.184 78.2285 29.832C77.5885 29.472 77.1005 28.996 76.7645 28.404C76.4365 27.804 76.2725 27.144 76.2725 26.424C76.2725 25.824 76.3645 25.276 76.5485 24.78C76.7325 24.284 77.0285 23.848 77.4365 23.472C77.8525 23.088 78.4085 22.768 79.1045 22.512C79.5845 22.336 80.1565 22.18 80.8205 22.044C81.4845 21.908 82.2365 21.78 83.0765 21.66C83.9165 21.532 84.8405 21.392 85.8485 21.24L84.6725 21.888C84.6725 21.12 84.4885 20.556 84.1205 20.196C83.7525 19.836 83.1365 19.656 82.2725 19.656C81.7925 19.656 81.2925 19.772 80.7725 20.004C80.2525 20.236 79.8885 20.648 79.6805 21.24L76.7285 20.304C77.0565 19.232 77.6725 18.36 78.5765 17.688C79.4805 17.016 80.7125 16.68 82.2725 16.68C83.4165 16.68 84.4325 16.856 85.3205 17.208C86.2085 17.56 86.8805 18.168 87.3365 19.032C87.5925 19.512 87.7445 19.992 87.7925 20.472C87.8405 20.952 87.8645 21.488 87.8645 22.08V30H85.0085V27.336L85.4165 27.888C84.7845 28.76 84.1005 29.392 83.3645 29.784C82.6365 30.168 81.7125 30.36 80.5925 30.36ZM81.2885 27.792C81.8885 27.792 82.3925 27.688 82.8005 27.48C83.2165 27.264 83.5445 27.02 83.7845 26.748C84.0325 26.476 84.2005 26.248 84.2885 26.064C84.4565 25.712 84.5525 25.304 84.5765 24.84C84.6085 24.368 84.6245 23.976 84.6245 23.664L85.5845 23.904C84.6165 24.064 83.8325 24.2 83.2325 24.312C82.6325 24.416 82.1485 24.512 81.7805 24.6C81.4125 24.688 81.0885 24.784 80.8085 24.888C80.4885 25.016 80.2285 25.156 80.0285 25.308C79.8365 25.452 79.6925 25.612 79.5965 25.788C79.5085 25.964 79.4645 26.16 79.4645 26.376C79.4645 26.672 79.5365 26.928 79.6805 27.144C79.8325 27.352 80.0445 27.512 80.3165 27.624C80.5885 27.736 80.9125 27.792 81.2885 27.792ZM99.8167 30V23.88C99.8167 23.584 99.8007 23.208 99.7687 22.752C99.7367 22.288 99.6367 21.824 99.4687 21.36C99.3007 20.896 99.0247 20.508 98.6407 20.196C98.2647 19.884 97.7287 19.728 97.0327 19.728C96.7527 19.728 96.4527 19.772 96.1327 19.86C95.8127 19.948 95.5127 20.12 95.2327 20.376C94.9527 20.624 94.7207 20.992 94.5367 21.48C94.3607 21.968 94.2727 22.616 94.2727 23.424L92.4007 22.536C92.4007 21.512 92.6087 20.552 93.0247 19.656C93.4407 18.76 94.0647 18.036 94.8967 17.484C95.7367 16.932 96.7927 16.656 98.0647 16.656C99.0807 16.656 99.9087 16.828 100.549 17.172C101.189 17.516 101.685 17.952 102.037 18.48C102.397 19.008 102.653 19.56 102.805 20.136C102.957 20.704 103.049 21.224 103.081 21.696C103.113 22.168 103.129 22.512 103.129 22.728V30H99.8167ZM90.9607 30V17.04H93.8647V21.336H94.2727V30H90.9607ZM111.72 30.36C110.376 30.36 109.224 30.06 108.264 29.46C107.304 28.86 106.568 28.044 106.056 27.012C105.544 25.98 105.288 24.816 105.288 23.52C105.288 22.208 105.552 21.036 106.08 20.004C106.616 18.972 107.368 18.16 108.336 17.568C109.304 16.976 110.448 16.68 111.768 16.68C113.296 16.68 114.576 17.068 115.608 17.844C116.648 18.612 117.312 19.664 117.6 21L114.336 21.864C114.144 21.192 113.808 20.668 113.328 20.292C112.856 19.916 112.32 19.728 111.72 19.728C111.032 19.728 110.468 19.896 110.028 20.232C109.588 20.56 109.264 21.012 109.056 21.588C108.848 22.156 108.744 22.8 108.744 23.52C108.744 24.648 108.992 25.564 109.488 26.268C109.992 26.964 110.736 27.312 111.72 27.312C112.456 27.312 113.016 27.144 113.4 26.808C113.784 26.472 114.072 25.992 114.264 25.368L117.6 26.064C117.232 27.44 116.536 28.5 115.512 29.244C114.488 29.988 113.224 30.36 111.72 30.36ZM125.673 30.36C124.345 30.36 123.173 30.076 122.157 29.508C121.149 28.932 120.357 28.144 119.781 27.144C119.213 26.136 118.929 24.984 118.929 23.688C118.929 22.272 119.209 21.04 119.769 19.992C120.329 18.944 121.101 18.132 122.085 17.556C123.069 16.972 124.201 16.68 125.481 16.68C126.841 16.68 127.997 17 128.949 17.64C129.901 18.28 130.605 19.18 131.061 20.34C131.517 21.5 131.677 22.864 131.541 24.432H128.313V23.232C128.313 21.912 128.101 20.964 127.677 20.388C127.261 19.804 126.577 19.512 125.625 19.512C124.513 19.512 123.693 19.852 123.165 20.532C122.645 21.204 122.385 22.2 122.385 23.52C122.385 24.728 122.645 25.664 123.165 26.328C123.693 26.984 124.465 27.312 125.481 27.312C126.121 27.312 126.669 27.172 127.125 26.892C127.581 26.612 127.929 26.208 128.169 25.68L131.433 26.616C130.945 27.8 130.173 28.72 129.117 29.376C128.069 30.032 126.921 30.36 125.673 30.36ZM121.377 24.432V22.008H129.969V24.432H121.377Z" fill="black"/>
</svg>
