<svg width="600" height="135" viewBox="0 0 600 135" fill="none" xmlns="http://www.w3.org/2000/svg">
<rect width="600" height="135" rx="30" fill="white"/>
<path d="M80.6 92.6C80.6667 93.2667 80.6 93.9 80.4 94.5C80.2667 94.9 80.0667 95.2333 79.8 95.5C79.6 95.7667 79.3333 96.0333 79 96.3C78.4 96.7 77.6667 97.0667 76.8 97.4C76.2667 97.5333 75.7333 97.6333 75.2 97.7C74.7333 97.8333 74.2333 97.8333 73.7 97.7C72.6333 97.6333 71.7 97.2333 70.9 96.5C69.7667 95.5667 68.8333 94.5333 68.1 93.4C67.7667 92.8667 67.4 92.2667 67 91.6C66.6 90.9333 66.2333 90.2333 65.9 89.5L54.8 68.4C54.2667 68.4 53.7333 68.4333 53.2 68.5C52.6667 68.5 52.1333 68.5333 51.6 68.6C50.2 68.7333 48.8667 68.7667 47.6 68.7C46.4 68.6333 45.1333 68.6333 43.8 68.7H41.9V86.8C41.9 87.3333 41.8667 87.8333 41.8 88.3C41.8 88.7667 41.8 89.2667 41.8 89.8C41.8 90.1333 41.7667 90.5667 41.7 91.1C41.7 91.6333 41.6667 92.1333 41.6 92.6C41.4667 93.3333 41.1667 94.1 40.7 94.9C40.2333 95.6333 39.6 96.2667 38.8 96.8C37.4 97.6667 35.7 97.9 33.7 97.5C32.8333 97.3 32 96.9667 31.2 96.5C30.9333 96.3 30.7 96.0667 30.5 95.8C30.3 95.4667 30.1333 95.1333 30 94.8C29.8667 94.4667 29.7333 94.1333 29.6 93.8C29.5333 93.4 29.4333 93.0333 29.3 92.7C29.1 92.0333 29 91.4 29 90.8V34C29 33.6 29 33.2 29 32.8C29.0667 32.3333 29.1333 31.9333 29.2 31.6C29.2667 30.8667 29.5 30.1333 29.9 29.4C30.1 28.6 30.4333 28.0333 30.9 27.7C31.3 27.3 31.9 26.9667 32.7 26.7C33.5667 26.3667 34.8 26.2333 36.4 26.3C39.4 26.3667 42.3667 26.4 45.3 26.4C48.2333 26.4 51.1667 26.4667 54.1 26.6C56.0333 26.7333 58.0667 26.9667 60.2 27.3C62.4 27.5667 64.4333 28.0667 66.3 28.8C67.5 29.2667 68.6 29.7333 69.6 30.2C70.8667 30.9333 71.8667 31.6333 72.6 32.3C74.9333 34.4333 76.7 37 77.9 40C79.1 43 79.7 46.0333 79.7 49.1C79.7 52.7 78.8333 56 77.1 59C75.4333 62 72.7333 64.2333 69 65.7C68.8667 65.8333 68.6667 65.9333 68.4 66C68.2 66 68.0333 66.0333 67.9 66.1L77.1 84.6L78 86.2C78.1333 86.4667 78.3 86.7667 78.5 87.1C78.7 87.4333 78.8667 87.7667 79 88.1C79.2 88.4333 79.3667 88.8 79.5 89.2C79.7 89.6 79.9 89.9667 80.1 90.3C80.3 91.2333 80.4667 92 80.6 92.6ZM55.6 57C56.8 57 57.9333 56.8 59 56.4C60.1333 55.9333 61.1333 55.3333 62 54.6C62.9333 53.8667 63.7 53.0333 64.3 52.1C64.9 51.1 65.2333 50.0333 65.3 48.9C65.5667 45.5667 64.7 43.1 62.7 41.5C60.7 39.8333 58.0667 38.9333 54.8 38.8C52.8667 38.6667 50.7333 38.6 48.4 38.6C46.1333 38.6 43.9667 38.6 41.9 38.6C41.9667 41.3333 41.9667 44.1333 41.9 47C41.9 49.8 41.9 53.1333 41.9 57H55.6ZM101.568 51.8C103.768 50.7333 106.068 49.9667 108.468 49.5C110.868 49.0333 113.235 48.9333 115.568 49.2C117.968 49.4667 120.268 50.1 122.468 51.1C124.735 52.1 126.801 53.5 128.668 55.3C130.201 56.8333 131.535 58.7 132.668 60.9C133.801 63.0333 134.635 65.1333 135.168 67.2C136.301 70.8667 136.468 74.5667 135.668 78.3C134.868 82.0333 133.501 85.5 131.568 88.7C130.635 90.1667 129.468 91.5 128.068 92.7C126.735 93.8333 125.301 94.7667 123.768 95.5C121.768 96.4333 119.601 97.0667 117.268 97.4C114.935 97.8 112.668 97.9 110.468 97.7C106.468 97.5 102.935 96.5 99.868 94.7C96.868 92.9 94.4346 90.6 92.568 87.8C90.768 85 89.568 81.8333 88.968 78.3C88.4346 74.7 88.668 71.0333 89.668 67.3C90.7346 63.3 92.268 60.0667 94.268 57.6C96.3346 55.0667 98.768 53.1333 101.568 51.8ZM104.568 65.2C103.568 66.1333 102.801 67.3 102.268 68.7C101.735 70.1 101.401 71.5667 101.268 73.1C101.135 74.5667 101.235 76.0667 101.568 77.6C101.968 79.0667 102.568 80.4 103.368 81.6C104.035 82.6 105.235 83.4333 106.968 84.1C108.701 84.7667 110.501 85.1667 112.368 85.3C114.501 85.4333 116.368 84.8667 117.968 83.6C119.568 82.2667 120.768 80.6333 121.568 78.7C122.435 76.7667 122.835 74.6667 122.768 72.4C122.701 70.1333 122.101 68.0667 120.968 66.2C120.168 64.8667 119.035 63.9 117.568 63.3C116.168 62.6333 114.668 62.3 113.068 62.3C111.535 62.2333 110.001 62.4667 108.468 63C106.935 63.4667 105.635 64.2 104.568 65.2ZM168.037 79.4C166.77 78.6 165.337 77.9667 163.737 77.5C162.203 77.0333 160.603 76.6 158.937 76.2C157.337 75.8 155.77 75.3667 154.237 74.9C152.703 74.3667 151.303 73.6333 150.037 72.7C147.303 70.6333 145.703 68.1 145.237 65.1C144.837 62.0333 145.503 58.9667 147.237 55.9C148.17 54.3 149.403 53 150.937 52C152.47 50.9333 154.137 50.1333 155.937 49.6C157.803 49 159.703 48.6667 161.637 48.6C163.57 48.5333 165.403 48.6333 167.137 48.9C168.27 49.1 169.47 49.4 170.737 49.8C172.003 50.1333 173.17 50.6 174.237 51.2C175.37 51.8 176.37 52.5667 177.237 53.5C178.17 54.3667 178.837 55.4667 179.237 56.8C179.503 57.6667 179.537 58.5 179.337 59.3C179.203 60.1 178.87 60.7667 178.337 61.3C177.87 61.8333 177.237 62.2333 176.437 62.5C175.703 62.7667 174.903 62.8333 174.037 62.7C173.037 62.5 172.103 62.2 171.237 61.8C170.37 61.4 169.503 60.9667 168.637 60.5C167.77 60.0333 166.87 59.6333 165.937 59.3C165.07 58.9667 164.137 58.8 163.137 58.8C161.603 58.7333 160.337 59 159.337 59.6C158.337 60.2 157.637 60.9333 157.237 61.8C156.903 62.6667 156.937 63.6 157.337 64.6C157.803 65.6 158.737 66.4667 160.137 67.2C161.403 67.8667 162.803 68.4 164.337 68.8C165.87 69.2 167.37 69.6 168.837 70C170.37 70.4 171.837 70.8667 173.237 71.4C174.703 71.9333 176.003 72.6667 177.137 73.6C179.337 75.4 180.67 77.5 181.137 79.9C181.67 82.3 181.537 84.6667 180.737 87C179.937 89.3333 178.537 91.4 176.537 93.2C174.603 95 172.303 96.2 169.637 96.8C167.703 97.2 165.603 97.4 163.337 97.4C161.137 97.4 158.937 97.1667 156.737 96.7C154.603 96.2333 152.537 95.5 150.537 94.5C148.603 93.5 146.97 92.2333 145.637 90.7C144.703 89.6333 144.203 88.4333 144.137 87.1C144.137 85.7 144.403 84.5 144.937 83.5C145.537 82.4333 146.37 81.7 147.437 81.3C148.503 80.9 149.703 81.1333 151.037 82C152.103 82.7333 153.37 83.4667 154.837 84.2C156.303 84.8667 157.77 85.4 159.237 85.8C160.703 86.2 162.103 86.4 163.437 86.4C164.837 86.4 166.037 86.1 167.037 85.5C168.503 84.5667 169.27 83.5 169.337 82.3C169.403 81.0333 168.97 80.0667 168.037 79.4ZM227.95 52.9C228.483 54.1667 228.517 55.5667 228.05 57.1C227.65 58.6333 226.883 59.6333 225.75 60.1C225.15 60.3667 224.35 60.6 223.35 60.8C222.35 60.9333 221.25 61.0667 220.05 61.2C218.917 61.3333 217.783 61.4333 216.65 61.5C215.517 61.5667 214.55 61.6 213.75 61.6C213.817 63.6 213.883 65.6667 213.95 67.8C214.017 69.8667 214.083 71.9 214.15 73.9C214.217 75.9 214.25 77.8333 214.25 79.7C214.25 81.5 214.217 83.1333 214.15 84.6C214.15 85.6 214.15 86.7667 214.15 88.1C214.15 89.3667 214.05 90.6 213.85 91.8C213.717 93 213.483 94.0667 213.15 95C212.817 95.8667 212.317 96.4333 211.65 96.7C209.583 97.5667 207.683 97.8 205.95 97.4C204.283 97.0667 203.083 96.3667 202.35 95.3C201.817 94.4333 201.417 93.4333 201.15 92.3C200.883 91.1 200.683 89.9 200.55 88.7C200.483 87.4333 200.45 86.2333 200.45 85.1C200.517 83.9 200.55 82.8667 200.55 82C200.617 79.2 200.65 76.0333 200.65 72.5C200.717 68.9 200.75 65.3 200.75 61.7H199.25C198.45 61.7 197.417 61.7 196.15 61.7C194.95 61.6333 193.717 61.5333 192.45 61.4C191.25 61.2 190.117 60.9667 189.05 60.7C187.983 60.3667 187.217 59.9 186.75 59.3C186.017 58.4333 185.55 57.5 185.35 56.5C185.217 55.5 185.283 54.5667 185.55 53.7C185.883 52.7667 186.383 51.9667 187.05 51.3C187.717 50.5667 188.483 50.1 189.35 49.9C190.55 49.5667 192.25 49.4 194.45 49.4C196.65 49.3333 198.717 49.3333 200.65 49.4C200.583 48.7333 200.55 48.1 200.55 47.5C200.55 46.8333 200.517 46.2 200.45 45.6C200.383 44.8 200.35 43.8 200.35 42.6C200.35 41.3333 200.417 40.1 200.55 38.9C200.75 37.6333 201.05 36.4667 201.45 35.4C201.85 34.2667 202.417 33.4 203.15 32.8C204.15 32 205.15 31.5667 206.15 31.5C207.217 31.3667 208.183 31.5 209.05 31.9C209.983 32.3 210.75 32.9 211.35 33.7C212.017 34.4333 212.483 35.2667 212.75 36.2C212.95 37 213.117 37.9667 213.25 39.1C213.383 40.1667 213.45 41.3 213.45 42.5C213.517 43.7 213.55 44.9 213.55 46.1C213.55 47.3 213.55 48.4 213.55 49.4H214.55C215.55 49.4 216.717 49.3667 218.05 49.3C219.383 49.2333 220.683 49.2667 221.95 49.4C223.283 49.5333 224.483 49.8667 225.55 50.4C226.617 50.8667 227.417 51.7 227.95 52.9ZM267.018 83.3C267.818 83.1 268.618 82.9667 269.418 82.9C270.285 82.8333 271.051 82.9333 271.718 83.2C272.451 83.4667 273.051 83.9333 273.518 84.6C273.985 85.2 274.218 86.0667 274.218 87.2C274.218 88 274.018 88.7667 273.618 89.5C273.218 90.2333 272.718 90.9 272.118 91.5C271.518 92.1 270.851 92.6333 270.118 93.1C269.385 93.5 268.685 93.8333 268.018 94.1C266.085 94.9667 263.851 95.6333 261.318 96.1C258.851 96.5667 256.285 96.7333 253.618 96.6C250.018 96.4667 246.551 95.7667 243.218 94.5C239.951 93.1667 237.385 91 235.518 88C233.785 85.0667 232.751 81.8 232.418 78.2C232.085 74.6 232.251 71.2 232.918 68C233.651 64.1333 234.885 61 236.618 58.6C238.418 56.1333 240.551 54.1667 243.018 52.7C246.018 50.9667 249.385 50.0667 253.118 50C256.851 49.9333 260.418 50.6667 263.818 52.2C266.085 53.2 268.118 54.5667 269.918 56.3C271.718 57.9667 273.085 60 274.018 62.4C274.285 63 274.485 63.7333 274.618 64.6C274.818 65.4667 274.951 66.4 275.018 67.4C275.085 68.3333 275.085 69.2667 275.018 70.2C274.951 71.1333 274.785 71.9667 274.518 72.7C274.118 73.9 273.618 74.8333 273.018 75.5C272.418 76.1667 271.651 76.6667 270.718 77C269.785 77.3333 268.651 77.5667 267.318 77.7C266.051 77.7667 264.518 77.8333 262.718 77.9C261.118 77.9667 259.618 78 258.218 78C256.818 78 255.385 78 253.918 78C252.451 77.9333 250.918 77.9 249.318 77.9C247.785 77.8333 246.051 77.7667 244.118 77.7C243.918 79.0333 244.085 80.2 244.618 81.2C245.218 82.1333 246.018 82.9333 247.018 83.6C248.018 84.2 249.151 84.6667 250.418 85C251.685 85.3333 252.918 85.5333 254.118 85.6C256.385 85.7333 258.551 85.5667 260.618 85.1C262.685 84.5667 264.818 83.9667 267.018 83.3ZM262.718 63.9C261.451 62.4333 260.118 61.3667 258.718 60.7C257.651 60.2333 256.518 60.0333 255.318 60.1C254.185 60.1 253.085 60.2667 252.018 60.6C250.085 61.0667 248.451 62.0667 247.118 63.6C246.985 63.7333 246.751 64.0667 246.418 64.6C246.085 65.0667 245.751 65.5667 245.418 66.1C245.151 66.6333 244.951 67.1333 244.818 67.6C244.685 68.0667 244.751 68.3 245.018 68.3H264.618C264.551 67.3667 264.385 66.6 264.118 66C263.851 65.3333 263.385 64.6333 262.718 63.9ZM283.202 61.6C283.202 60.8 283.202 59.9 283.202 58.9C283.202 57.8333 283.235 56.7667 283.302 55.7C283.368 54.5667 283.468 53.5 283.602 52.5C283.802 51.4333 284.068 50.5 284.402 49.7C284.935 48.5 285.768 47.7 286.902 47.3C288.035 46.8333 289.268 46.6333 290.602 46.7C292.002 46.7 293.102 46.9333 293.902 47.4C294.702 47.8667 295.302 48.5 295.702 49.3C296.102 50.0333 296.335 50.9 296.402 51.9C296.535 52.8333 296.602 53.8333 296.602 54.9C297.202 53.8333 298.002 52.9667 299.002 52.3C300.068 51.6333 301.135 51.1 302.202 50.7C303.268 50.3 304.235 50.0333 305.102 49.9C305.968 49.7 306.468 49.6 306.602 49.6C308.268 49.4667 309.768 49.4333 311.102 49.5C312.502 49.5667 314.035 49.8667 315.702 50.4C316.768 50.8 317.868 51.3667 319.002 52.1C320.135 52.7667 321.135 53.5667 322.002 54.5C322.868 55.4333 323.435 56.4667 323.702 57.6C324.035 58.6667 323.902 59.8 323.302 61C322.368 62.6667 321.335 63.5 320.202 63.5C319.068 63.4333 317.835 63.2333 316.502 62.9C315.768 62.7667 314.902 62.4667 313.902 62C312.902 61.5333 312.035 61.2333 311.302 61.1C309.035 60.7667 307.035 60.9333 305.302 61.6C303.568 62.2667 302.068 63.0667 300.802 64C299.335 65.1333 298.068 66.4333 297.002 67.9V82.3C297.002 84.1 296.968 85.9667 296.902 87.9C296.902 89.8333 296.635 91.6 296.102 93.2C295.635 94.7333 294.802 96 293.602 97C292.468 97.9333 290.802 98.3333 288.602 98.2C287.402 98.1333 286.335 97.5667 285.402 96.5C284.468 95.3667 283.902 94.2667 283.702 93.2C283.568 92.2 283.468 91 283.402 89.6C283.335 88.2 283.268 86.7333 283.202 85.2C283.202 83.6667 283.202 82.1333 283.202 80.6C283.202 79 283.202 77.5333 283.202 76.2V61.6ZM415.01 80.2C415.877 82.1333 415.91 84.0333 415.11 85.9C414.31 87.7 413.043 89.3667 411.31 90.9C409.577 92.4333 407.577 93.7667 405.31 94.9C403.11 96.0333 401.01 96.8333 399.01 97.3C396.81 97.7667 394.477 97.9667 392.01 97.9C389.61 97.9 387.177 97.6 384.71 97C382.31 96.4667 379.943 95.6667 377.61 94.6C375.343 93.4667 373.243 92.1 371.31 90.5C368.977 88.5667 367.143 86.2667 365.81 83.6C364.543 80.8667 363.61 77.9667 363.01 74.9C362.41 71.8333 362.077 68.7667 362.01 65.7C362.01 62.5667 362.11 59.6333 362.31 56.9C362.51 54.4333 363.01 51.8667 363.81 49.2C364.61 46.5333 365.71 43.9333 367.11 41.4C368.577 38.8 370.31 36.4 372.31 34.2C374.377 32 376.777 30.1333 379.51 28.6C381.577 27.4 383.877 26.6 386.41 26.2C389.01 25.7333 391.61 25.6333 394.21 25.9C396.877 26.1 399.377 26.6667 401.71 27.6C404.11 28.4667 406.143 29.6667 407.81 31.2C408.877 32.1333 409.977 33.4333 411.11 35.1C412.31 36.7667 413.177 38.4667 413.71 40.2C414.243 41.9333 414.243 43.5667 413.71 45.1C413.243 46.5667 411.91 47.5667 409.71 48.1C408.777 48.3667 407.943 48.4333 407.21 48.3C406.477 48.1 405.81 47.8 405.21 47.4C404.61 46.9333 404.043 46.4 403.51 45.8C402.977 45.2 402.477 44.6 402.01 44C400.41 42.0667 398.543 40.7667 396.41 40.1C394.277 39.3667 392.143 39.2 390.01 39.6C387.943 39.9333 385.977 40.8 384.11 42.2C382.31 43.5333 380.91 45.2667 379.91 47.4C378.843 49.6667 377.977 52.1667 377.31 54.9C376.71 57.5667 376.377 60.3 376.31 63.1C376.243 65.8333 376.477 68.5 377.01 71.1C377.61 73.7 378.61 76 380.01 78C381.077 79.6 382.377 80.9 383.91 81.9C385.51 82.9 387.21 83.6 389.01 84C390.81 84.4 392.61 84.4667 394.41 84.2C396.277 83.9333 398.077 83.3333 399.81 82.4C400.343 82.1333 400.91 81.7667 401.51 81.3C402.177 80.7667 402.843 80.2333 403.51 79.7C404.177 79.1667 404.843 78.6667 405.51 78.2C406.243 77.7333 407.01 77.4 407.81 77.2C409.01 76.8 410.31 76.8333 411.71 77.3C413.177 77.7667 414.277 78.7333 415.01 80.2ZM435.427 54.9C437.427 53.9 439.527 53.2 441.727 52.8C443.927 52.3333 446.093 52.2333 448.227 52.5C450.427 52.7 452.527 53.2667 454.527 54.2C456.527 55.0667 458.393 56.3333 460.127 58C461.86 59.7333 463.193 61.6333 464.127 63.7C465.06 65.7667 465.727 68.0667 466.127 70.6C466.393 72.3333 466.827 73.9333 467.427 75.4C468.027 76.8667 468.66 78.3333 469.327 79.8C470.06 81.2667 470.727 82.7333 471.327 84.2C471.993 85.6667 472.527 87.2 472.927 88.8C473.26 90.3333 473.127 91.8333 472.527 93.3C471.993 94.7 470.86 95.5667 469.127 95.9C468.127 96.1 467.16 96.0333 466.227 95.7C465.36 95.3 464.56 94.7667 463.827 94.1C463.093 93.3667 462.427 92.6 461.827 91.8C461.293 90.9333 460.793 90.1333 460.327 89.4C458.793 91.4 457.127 92.9667 455.327 94.1C453.527 95.1667 451.36 95.8667 448.827 96.2C446.693 96.4667 444.66 96.5333 442.727 96.4C440.793 96.2667 438.727 95.9 436.527 95.3C433.66 94.5667 431.293 93.3 429.427 91.5C427.627 89.6333 426.227 87.5 425.227 85.1C424.293 82.6333 423.793 80 423.727 77.2C423.66 74.4 423.993 71.6333 424.727 68.9C425.66 65.3 427.06 62.3667 428.927 60.1C430.793 57.8333 432.96 56.1 435.427 54.9ZM437.927 66.6C436.993 67.5333 436.26 68.6333 435.727 69.9C435.193 71.1667 434.86 72.5 434.727 73.9C434.66 75.3 434.793 76.7 435.127 78.1C435.46 79.5 435.993 80.7333 436.727 81.8C437.393 82.7333 438.527 83.5333 440.127 84.2C441.727 84.8 443.393 85.1667 445.127 85.3C447.127 85.4333 448.86 84.9 450.327 83.7C451.86 82.5 452.993 81 453.727 79.2C454.527 77.3333 454.893 75.3667 454.827 73.3C454.76 71.1667 454.193 69.2333 453.127 67.5C452.327 66.2333 451.26 65.3 449.927 64.7C448.66 64.1 447.293 63.8 445.827 63.8C444.36 63.7333 442.893 63.9667 441.427 64.5C440.027 64.9667 438.86 65.6667 437.927 66.6ZM481.446 33.8C481.579 31.4 482.313 29.4667 483.646 28C485.046 26.5333 487.013 26.1333 489.546 26.8C490.746 27.1333 491.613 27.6333 492.146 28.3C492.746 28.9667 493.146 29.7667 493.346 30.7C493.613 31.5667 493.746 32.5333 493.746 33.6C493.746 34.6 493.746 35.6 493.746 36.6V50.4C493.679 50.9333 493.646 51.4667 493.646 52C493.713 52.4667 493.746 52.9 493.746 53.3V54.6H496.246C496.979 54.6 497.679 54.6 498.346 54.6C499.079 54.6 499.713 54.5667 500.246 54.5C503.913 54.5 507.046 55.0333 509.646 56.1C512.313 57.1667 514.446 58.6667 516.046 60.6C517.713 62.4667 518.913 64.7333 519.646 67.4C520.446 70 520.813 72.8667 520.746 76C520.679 79.7333 520.079 82.9333 518.946 85.6C517.813 88.2667 516.213 90.4667 514.146 92.2C512.079 93.9333 509.579 95.2333 506.646 96.1C503.779 96.9 500.546 97.3 496.946 97.3C492.813 97.3 489.679 97.2667 487.546 97.2C485.413 97.1333 483.879 96.5333 482.946 95.4C482.079 94.2667 481.613 92.3 481.546 89.5C481.479 86.7 481.446 82.6 481.446 77.2C481.446 72 481.446 66.8667 481.446 61.8C481.513 56.7333 481.513 51.6333 481.446 46.5C481.446 45.8333 481.413 45.1333 481.346 44.4C481.346 43.6667 481.346 42.8333 481.346 41.9C481.346 40.9667 481.346 39.8667 481.346 38.6C481.346 37.2667 481.379 35.6667 481.446 33.8ZM500.146 86.1C503.813 85.9 506.346 84.9 507.746 83.1C508.479 82.1 509.046 80.9 509.446 79.5C509.846 78.1 510.013 76.7 509.946 75.3C509.879 73.9 509.579 72.5667 509.046 71.3C508.579 69.9667 507.813 68.8667 506.746 68C505.813 67.2 504.879 66.6333 503.946 66.3C503.013 65.9 502.046 65.6667 501.046 65.6C500.046 65.4667 498.979 65.4333 497.846 65.5C496.713 65.5 495.413 65.5333 493.946 65.6V77.6L493.746 85.9C494.413 85.9667 495.113 86.0333 495.846 86.1C497.113 86.2333 498.546 86.2333 500.146 86.1ZM552.705 79.4C551.438 78.6 550.005 77.9667 548.405 77.5C546.871 77.0333 545.271 76.6 543.605 76.2C542.005 75.8 540.438 75.3667 538.905 74.9C537.371 74.3667 535.971 73.6333 534.705 72.7C531.971 70.6333 530.371 68.1 529.905 65.1C529.505 62.0333 530.171 58.9667 531.905 55.9C532.838 54.3 534.071 53 535.605 52C537.138 50.9333 538.805 50.1333 540.605 49.6C542.471 49 544.371 48.6667 546.305 48.6C548.238 48.5333 550.071 48.6333 551.805 48.9C552.938 49.1 554.138 49.4 555.405 49.8C556.671 50.1333 557.838 50.6 558.905 51.2C560.038 51.8 561.038 52.5667 561.905 53.5C562.838 54.3667 563.505 55.4667 563.905 56.8C564.171 57.6667 564.205 58.5 564.005 59.3C563.871 60.1 563.538 60.7667 563.005 61.3C562.538 61.8333 561.905 62.2333 561.105 62.5C560.371 62.7667 559.571 62.8333 558.705 62.7C557.705 62.5 556.771 62.2 555.905 61.8C555.038 61.4 554.171 60.9667 553.305 60.5C552.438 60.0333 551.538 59.6333 550.605 59.3C549.738 58.9667 548.805 58.8 547.805 58.8C546.271 58.7333 545.005 59 544.005 59.6C543.005 60.2 542.305 60.9333 541.905 61.8C541.571 62.6667 541.605 63.6 542.005 64.6C542.471 65.6 543.405 66.4667 544.805 67.2C546.071 67.8667 547.471 68.4 549.005 68.8C550.538 69.2 552.038 69.6 553.505 70C555.038 70.4 556.505 70.8667 557.905 71.4C559.371 71.9333 560.671 72.6667 561.805 73.6C564.005 75.4 565.338 77.5 565.805 79.9C566.338 82.3 566.205 84.6667 565.405 87C564.605 89.3333 563.205 91.4 561.205 93.2C559.271 95 556.971 96.2 554.305 96.8C552.371 97.2 550.271 97.4 548.005 97.4C545.805 97.4 543.605 97.1667 541.405 96.7C539.271 96.2333 537.205 95.5 535.205 94.5C533.271 93.5 531.638 92.2333 530.305 90.7C529.371 89.6333 528.871 88.4333 528.805 87.1C528.805 85.7 529.071 84.5 529.605 83.5C530.205 82.4333 531.038 81.7 532.105 81.3C533.171 80.9 534.371 81.1333 535.705 82C536.771 82.7333 538.038 83.4667 539.505 84.2C540.971 84.8667 542.438 85.4 543.905 85.8C545.371 86.2 546.771 86.4 548.105 86.4C549.505 86.4 550.705 86.1 551.705 85.5C553.171 84.5667 553.938 83.5 554.005 82.3C554.071 81.0333 553.638 80.0667 552.705 79.4Z" fill="#3D408A"/>
</svg>
